<svg width="100%" height="100%" viewBox="0 0 1200 715" fill="none" xmlns="http://www.w3.org/2000/svg">
<g clip-path="url(#clip0_1_3)">
<path d="M39.5921 70.325H151.886L201.954 428.665H203.384L253.452 70.325H365.746V571H291.36V191.917H289.93L232.71 571H166.907L109.687 191.917H108.256V571H39.5921V70.325ZM474.526 70.325H581.098L662.636 571H583.959L569.654 471.58V473.011H480.248L465.943 571H392.987L474.526 70.325ZM560.356 405.062L525.308 157.585H523.878L489.546 405.062H560.356ZM690.078 70.325H805.949C845.049 70.325 874.375 80.8153 893.925 101.796C913.475 122.777 923.25 153.532 923.25 194.063V243.415C923.25 283.946 913.475 314.702 893.925 335.683C874.375 356.663 845.049 367.154 805.949 367.154H768.756V571H690.078V70.325ZM805.949 295.629C818.823 295.629 828.36 292.052 834.559 284.9C841.235 277.747 844.572 265.588 844.572 248.422V189.056C844.572 171.89 841.235 159.731 834.559 152.579C828.36 145.426 818.823 141.85 805.949 141.85H768.756V295.629H805.949ZM1066.12 578.153C1028.45 578.153 999.597 567.424 979.57 545.966C960.02 524.509 950.245 494.23 950.245 455.129V186.195C950.245 147.095 960.02 116.816 979.57 95.3587C999.597 73.9012 1028.45 63.1725 1066.12 63.1725C1103.79 63.1725 1132.4 73.9012 1151.95 95.3587C1171.97 116.816 1181.99 147.095 1181.99 186.195V239.124H1107.6V181.189C1107.6 150.195 1094.49 134.697 1068.26 134.697C1042.04 134.697 1028.92 150.195 1028.92 181.189V460.851C1028.92 491.369 1042.04 506.627 1068.26 506.627C1094.49 506.627 1107.6 491.369 1107.6 460.851V384.32H1181.99V455.129C1181.99 494.23 1171.97 524.509 1151.95 545.966C1132.4 567.424 1103.79 578.153 1066.12 578.153Z" fill="black"/>
</g>
<defs>
<clipPath id="clip0_1_3">
<rect width="1200" height="715" fill="white"/>
</clipPath>
</defs>
</svg>
