<svg xmlns="http://www.w3.org/2000/svg" fill="none" viewBox="0 0 1172 554"><g clip-path="url(#a)"><path fill="#000" d="m168.482 401.684 53.644-355.479h109.433V546.88h-74.386V187.824L202.814 546.88h-74.386l-58.65-354.049V546.88H1.114V46.205h109.433l57.935 355.479ZM632.691 546.88h-79.393l-13.59-90.837H443.15l-13.59 90.837h-72.24l80.108-500.675h115.155l80.108 500.675ZM453.163 388.094h75.817l-37.909-253.198-37.908 253.198ZM774.472 46.205c39.578 0 68.903 10.49 87.976 31.471 19.55 20.98 29.325 51.736 29.325 92.267v65.088c0 40.531-9.775 71.287-29.325 92.267-19.073 20.981-48.398 31.471-87.976 31.471h-37.193V546.88h-78.677V46.205h115.87Zm-37.193 71.525v169.514h37.193c12.398 0 21.935-3.338 28.61-10.013 6.676-6.676 10.014-19.074 10.014-37.193v-75.102c0-18.119-3.338-30.517-10.014-37.193-6.675-6.675-16.212-10.013-28.61-10.013h-37.193ZM1145.65 360.2v66.518c0 40.531-10.01 71.763-30.04 93.698-19.55 21.457-48.63 32.186-87.26 32.186-38.621 0-67.946-10.729-87.973-32.186-19.55-21.935-29.325-53.167-29.325-93.698V166.367c0-40.531 9.775-71.525 29.325-92.982 20.027-21.935 49.352-32.902 87.973-32.902 38.63 0 67.71 10.967 87.26 32.902 20.03 21.457 30.04 52.451 30.04 92.982v48.637h-74.38V161.36c0-18.119-3.82-30.756-11.45-37.908-7.15-7.629-16.92-11.444-29.32-11.444-12.4 0-22.41 3.815-30.04 11.444-7.155 7.152-10.731 19.789-10.731 37.908v270.365c0 18.119 3.576 30.755 10.731 37.908 7.63 7.152 17.64 10.729 30.04 10.729 12.4 0 22.17-3.577 29.32-10.729 7.63-7.153 11.45-19.789 11.45-37.908V360.2h74.38Z"/></g><defs><clipPath id="a"><path fill="#fff" d="M0 0h1172v554H0z"/></clipPath></defs></svg>