<svg xmlns="http://www.w3.org/2000/svg" width="100%" height="100%" viewBox="0 0 1200 725" fill="none"><g clip-path="url(#a)"><path fill="#000" d="M39.592 70.325h112.294l50.068 358.34h1.43l50.068-358.34h112.294V571H291.36V191.917h-1.43L232.71 571h-65.803l-57.22-379.083h-1.431V571H39.592V70.325Zm434.934 0h106.572L662.636 571h-78.677l-14.305-99.42v1.431h-89.406L465.943 571h-72.956l81.539-500.675Zm85.83 334.737-35.048-247.477h-1.43l-34.332 247.477h70.81ZM690.078 70.325h115.871c39.1 0 68.426 10.49 87.976 31.471 19.55 20.981 29.325 51.736 29.325 92.267v49.352c0 40.531-9.775 71.287-29.325 92.268-19.55 20.98-48.876 31.471-87.976 31.471h-37.193V571h-78.678V70.325Zm115.871 225.304c12.874 0 22.411-3.577 28.61-10.729 6.676-7.153 10.013-19.312 10.013-36.478v-59.366c0-17.166-3.337-29.325-10.013-36.477-6.199-7.153-15.736-10.729-28.61-10.729h-37.193v153.779h37.193Zm260.171 282.524c-37.67 0-66.523-10.729-86.55-32.187-19.55-21.457-29.325-51.736-29.325-90.837V186.195c0-39.1 9.775-69.379 29.325-90.836 20.027-21.458 48.88-32.186 86.55-32.186 37.67 0 66.28 10.728 85.83 32.186 20.02 21.457 30.04 51.736 30.04 90.836v52.929h-74.39v-57.935c0-30.994-13.11-46.492-39.34-46.492-26.22 0-39.34 15.498-39.34 46.492v279.662c0 30.518 13.12 45.776 39.34 45.776 26.23 0 39.34-15.258 39.34-45.776V384.32h74.39v70.809c0 39.101-10.02 69.38-30.04 90.837-19.55 21.458-48.16 32.187-85.83 32.187Z"/></g><defs><clipPath id="a"><path fill="#fff" d="M0 0h1200v715H0z"/></clipPath></defs></svg>